<?xml version="1.0" standalone="no"?>
<!DOCTYPE svg PUBLIC "-//W3C//DTD SVG 20010904//EN"
 "http://www.w3.org/TR/2001/REC-SVG-20010904/DTD/svg10.dtd">
<svg version="1.0" xmlns="http://www.w3.org/2000/svg"
 width="3573.000000pt" height="2549.000000pt" viewBox="0 0 3573.000000 2549.000000"
 preserveAspectRatio="xMidYMid meet">

<g transform="translate(0.000000,2549.000000) scale(0.100000,-0.100000)"
fill="#000000" stroke="none">
<path d="M17867 24922 c-9 -9 -28 -71 -42 -137 -100 -468 -278 -995 -437
-1295 -201 -382 -458 -620 -669 -621 -112 -1 -227 48 -370 156 -79 60 -99 65
-129 35 -24 -24 -25 -36 -4 -75 90 -168 144 -303 144 -360 0 -40 -24 -50 -88
-37 -277 57 -701 473 -1174 1152 -83 120 -97 135 -125 138 -52 5 -59 -17 -72
-252 -44 -790 -168 -1502 -279 -1600 -19 -16 -33 -18 -99 -13 -120 8 -246 58
-359 143 -32 24 -68 44 -79 44 -42 0 -49 -15 -56 -113 -18 -248 -94 -232 -565
121 -261 195 -778 610 -1199 960 -120 101 -151 112 -180 68 -16 -23 -13 -34
40 -208 269 -869 464 -1695 468 -1981 2 -149 5 -147 -143 -147 -131 0 -309 21
-509 61 -189 38 -207 35 -198 -39 3 -26 19 -112 36 -192 42 -198 62 -345 62
-472 1 -130 -11 -165 -56 -160 -89 9 -341 193 -620 450 -121 112 -144 125
-180 98 -21 -15 -20 -26 14 -321 52 -452 53 -825 1 -905 -16 -25 -217 -18
-380 13 -270 52 -743 180 -1116 301 -174 57 -221 65 -242 44 -30 -30 -13 -60
106 -182 526 -545 811 -963 815 -1197 1 -84 -16 -112 -91 -147 -116 -53 -392
-40 -713 34 -219 50 -233 52 -253 23 -9 -13 -16 -29 -16 -35 0 -7 57 -70 128
-140 221 -223 322 -415 323 -610 1 -218 -91 -324 -307 -355 -179 -25 -493 30
-819 145 -143 51 -179 56 -195 27 -19 -36 -10 -56 71 -156 373 -458 616 -930
659 -1274 12 -100 9 -105 -68 -127 -102 -30 -269 -4 -474 72 -93 35 -99 36
-123 20 -17 -11 -25 -26 -25 -45 0 -24 18 -45 113 -130 254 -224 459 -466 550
-646 45 -91 67 -166 67 -233 0 -48 -4 -58 -32 -86 -88 -88 -338 -126 -819
-126 -368 0 -717 21 -1275 77 -174 17 -176 17 -190 -2 -8 -11 -14 -31 -12 -45
3 -28 10 -33 238 -167 294 -173 669 -431 890 -612 145 -118 330 -300 403 -396
33 -44 76 -114 96 -155 30 -63 36 -86 36 -140 -1 -43 -7 -76 -19 -99 -67 -126
-314 -253 -606 -313 -111 -23 -140 -38 -140 -73 0 -32 17 -47 120 -105 208
-116 450 -297 557 -415 102 -113 155 -224 139 -291 -19 -74 -177 -174 -411
-258 -308 -111 -830 -238 -1320 -321 -88 -15 -166 -32 -172 -38 -7 -5 -13 -24
-13 -42 0 -18 6 -37 13 -42 6 -6 120 -31 252 -57 883 -173 1633 -378 1960
-536 231 -111 260 -182 124 -304 -131 -118 -450 -256 -833 -361 -71 -19 -135
-40 -142 -46 -19 -15 -18 -64 2 -83 10 -11 33 -16 67 -16 126 0 434 -45 627
-92 354 -85 571 -236 545 -377 -43 -230 -609 -772 -1415 -1355 -250 -181 -240
-172 -240 -206 0 -20 8 -35 23 -45 21 -14 37 -12 194 25 1001 232 1811 320
2010 216 78 -40 100 -151 50 -259 -57 -126 -184 -280 -335 -410 -50 -44 -94
-88 -97 -98 -10 -30 4 -58 31 -65 13 -3 110 2 216 12 262 24 661 24 813 0 216
-34 332 -92 355 -176 41 -153 -185 -507 -592 -926 -65 -67 -118 -127 -118
-135 0 -26 31 -59 54 -59 13 0 48 11 78 24 172 76 479 172 647 201 170 30 321
14 371 -39 33 -36 36 -100 10 -226 -59 -291 -267 -803 -586 -1446 -90 -181
-164 -340 -164 -352 0 -31 44 -58 73 -45 12 6 95 63 183 126 656 470 1293 852
1649 990 181 70 321 89 373 50 76 -57 84 -143 24 -267 -56 -115 -130 -206
-301 -369 -45 -44 -61 -66 -61 -86 0 -63 39 -65 183 -11 271 102 526 142 678
106 150 -35 223 -125 236 -291 3 -38 12 -81 20 -94 18 -28 26 -27 243 19 90
19 191 33 265 37 110 5 122 4 144 -14 24 -19 25 -25 23 -124 -1 -98 -20 -258
-42 -352 -17 -76 -13 -115 15 -133 25 -16 28 -15 134 40 217 112 355 140 429
88 49 -35 109 -135 141 -236 118 -368 68 -1018 -139 -1791 -58 -214 -57 -235
3 -235 20 0 40 7 49 18 9 9 44 73 78 142 124 249 319 576 476 800 349 497 653
745 893 728 83 -6 151 -40 232 -113 89 -83 96 -79 172 77 85 174 196 268 318
268 80 0 141 -24 205 -83 68 -62 112 -126 194 -279 59 -113 63 -118 93 -118
41 0 47 5 86 70 93 153 261 354 323 386 41 21 71 2 124 -78 123 -185 282 -653
453 -1338 80 -316 142 -606 166 -765 21 -144 26 -155 69 -155 18 0 38 6 44 13
6 7 31 104 57 216 234 1040 542 1998 758 2364 66 113 152 197 201 197 8 0 84
-64 170 -143 172 -158 236 -202 319 -219 50 -11 62 -10 104 8 85 35 114 99
147 329 26 177 87 315 139 315 59 0 222 -134 341 -279 108 -132 238 -165 343
-88 17 12 61 59 97 104 121 148 266 234 334 199 36 -19 46 -40 72 -161 96
-432 328 -842 598 -1057 43 -34 83 -58 97 -58 22 0 55 23 55 38 0 4 14 102 30
217 121 836 304 1496 451 1629 41 38 43 38 108 34 197 -15 620 -237 1084 -568
107 -76 134 -91 160 -88 24 2 34 10 41 30 8 22 -2 53 -63 197 -187 443 -288
788 -279 959 3 69 6 76 36 103 22 20 43 29 65 29 75 0 214 -59 352 -148 114
-73 193 -89 273 -52 33 15 47 29 62 62 41 91 20 220 -74 449 -103 253 -138
425 -99 498 39 75 135 95 233 49 31 -14 149 -101 266 -195 523 -421 928 -710
1149 -819 94 -47 147 -61 189 -50 52 13 44 36 -117 356 -217 432 -339 722
-398 948 -16 62 -29 136 -29 164 0 59 29 115 64 124 49 12 238 -81 389 -193
73 -53 150 -77 227 -70 141 12 210 100 177 224 -21 79 -72 156 -178 268 -105
110 -125 141 -135 203 -9 56 25 126 68 141 143 50 656 -88 1382 -370 228 -89
271 -100 294 -77 30 30 13 63 -90 179 -604 679 -1078 1311 -1105 1472 -7 48
15 62 96 61 36 -1 111 -13 166 -28 104 -28 338 -117 437 -167 71 -36 112 -38
133 -5 21 32 14 47 -83 155 -186 209 -351 456 -413 616 -38 98 -48 193 -26
247 56 134 346 180 723 114 93 -17 124 -6 124 42 0 38 -5 42 -99 97 -239 139
-423 308 -485 447 -36 78 -40 118 -21 183 33 114 162 205 366 260 184 49 280
58 623 60 318 1 320 2 334 24 29 44 8 61 -210 168 -335 164 -568 313 -709 453
-123 122 -145 199 -81 279 97 121 270 178 572 188 177 6 200 13 200 60 0 31
-12 40 -168 139 -183 114 -348 240 -465 353 -110 107 -167 185 -174 241 -15
112 171 286 447 416 63 30 126 60 140 67 17 9 26 22 28 44 3 29 -4 36 -80 94
-113 85 -265 241 -311 319 -106 181 -85 304 77 457 145 137 439 300 751 417
83 31 161 62 175 69 30 15 39 67 15 87 -9 7 -96 43 -193 80 -458 173 -902 386
-1130 543 -40 27 -98 77 -128 110 -53 57 -56 63 -51 100 8 61 71 145 145 194
67 45 181 86 272 98 30 4 61 12 68 17 13 12 16 56 4 75 -4 7 -73 35 -152 62
-182 62 -302 117 -407 187 -153 102 -184 175 -121 291 79 147 297 374 605 632
95 79 175 152 178 163 12 35 -18 63 -82 77 -118 26 -362 114 -498 180 -256
124 -353 226 -320 338 48 163 527 667 1163 1222 78 69 144 133 148 143 8 25
-4 56 -26 68 -15 8 -69 -5 -241 -60 -779 -247 -1423 -374 -1724 -341 -192 22
-275 82 -275 199 0 53 50 189 100 274 160 271 439 583 863 964 40 36 57 59 57
76 0 28 -28 58 -53 58 -8 0 -91 -34 -183 -76 -645 -292 -1141 -454 -1353 -442
-81 4 -100 17 -138 91 -65 129 -91 359 -73 643 13 196 10 214 -32 214 -10 0
-72 -15 -136 -34 -263 -76 -501 -116 -695 -116 -119 0 -225 13 -267 33 -66 32
-45 165 57 368 64 125 65 129 49 154 -20 31 -52 32 -125 4 -164 -62 -407 -94
-533 -70 -121 24 -201 79 -263 181 -98 163 -140 417 -115 698 10 114 10 145 0
157 -22 27 -66 17 -137 -31 -216 -145 -474 -213 -544 -143 -77 77 69 707 330
1422 95 261 99 287 52 302 -36 11 -58 -3 -118 -78 -180 -223 -549 -600 -743
-758 -292 -238 -519 -356 -706 -366 -110 -7 -131 4 -169 80 -45 95 -56 173
-62 437 -4 209 -7 247 -21 258 -35 27 -59 14 -115 -60 -144 -194 -285 -287
-434 -288 -63 0 -75 3 -104 27 -136 115 -231 704 -245 1513 -7 367 -9 380 -63
380 -16 0 -33 -6 -39 -13 -6 -7 -30 -67 -53 -132 -122 -350 -310 -721 -484
-954 -252 -338 -513 -469 -772 -386 -43 14 -85 25 -93 25 -9 0 -44 -32 -79
-71 -105 -117 -203 -168 -294 -155 -58 9 -92 42 -140 141 -131 264 -337 998
-477 1700 -16 78 -28 115 -42 128 -26 22 -51 22 -71 -1z m253 -1964 c22 -50
48 -163 90 -380 54 -287 146 -385 375 -405 162 -13 595 62 998 173 87 24 166
44 175 44 30 0 119 47 159 83 50 46 86 119 112 229 21 91 58 174 85 197 13 11
19 11 33 0 32 -27 229 -453 358 -776 20 -51 42 -96 48 -101 7 -5 109 -48 227
-95 458 -181 669 -280 750 -352 77 -68 104 -79 190 -78 60 1 100 9 197 42 200
67 331 88 443 70 132 -21 180 -73 180 -195 0 -276 139 -424 424 -450 l72 -6
25 -47 c147 -280 397 -478 697 -552 l89 -21 23 -72 c75 -235 233 -408 454
-496 113 -46 235 -63 411 -58 l150 4 1 -106 c1 -131 22 -219 76 -324 49 -94
159 -211 250 -264 118 -70 279 -121 450 -144 48 -6 89 -16 91 -22 2 -6 48
-229 103 -496 85 -420 102 -488 122 -508 16 -17 30 -22 46 -18 12 3 98 15 192
27 286 36 614 30 640 -12 3 -6 -10 -34 -29 -63 -95 -142 -156 -307 -172 -462
-20 -186 73 -385 232 -501 l42 -30 -45 -44 c-125 -121 -262 -345 -301 -489
-25 -96 -22 -247 6 -330 56 -163 183 -301 376 -411 77 -44 77 -44 71 -79 -40
-229 -20 -395 66 -550 132 -238 422 -421 806 -506 45 -11 82 -21 82 -25 0 -3
-26 -16 -57 -28 -184 -74 -365 -191 -488 -315 -95 -96 -141 -164 -177 -262
-30 -80 -32 -271 -4 -354 24 -70 88 -195 131 -256 l34 -48 -49 -27 c-128 -70
-216 -163 -262 -277 -20 -49 -23 -74 -23 -187 1 -121 3 -137 33 -225 55 -158
156 -329 306 -515 l64 -80 -67 -11 c-218 -37 -313 -177 -267 -393 16 -78 97
-257 160 -355 20 -31 34 -61 31 -66 -3 -5 -18 -11 -34 -15 -15 -3 -62 -26
-102 -50 -143 -83 -248 -228 -285 -391 -24 -109 -15 -333 18 -461 l24 -91 -76
-11 c-150 -23 -255 -96 -313 -219 -30 -62 -32 -76 -35 -194 -3 -103 0 -147 18
-229 12 -55 24 -107 26 -114 4 -10 -24 -13 -124 -17 -122 -3 -132 -5 -196 -37
-110 -54 -153 -133 -143 -266 15 -199 192 -498 521 -880 52 -60 93 -111 91
-113 -2 -2 -20 5 -42 16 -21 11 -112 49 -203 85 -526 208 -799 240 -864 103
-21 -44 -20 -77 4 -178 37 -153 24 -287 -36 -365 -42 -55 -97 -78 -184 -77
-102 2 -249 31 -340 67 -101 40 -191 47 -247 19 -94 -48 -108 -182 -41 -380
l35 -101 -31 7 c-17 4 -74 7 -126 6 -72 0 -108 -6 -150 -22 -211 -83 -332
-332 -357 -735 l-6 -109 -41 6 c-168 22 -777 78 -799 72 -42 -10 -44 -43 -9
-149 17 -51 33 -119 37 -153 13 -119 -29 -246 -110 -333 l-46 -49 -67 50
c-100 77 -230 136 -328 150 -147 21 -256 -22 -375 -150 -104 -111 -147 -234
-128 -371 5 -35 11 -67 14 -71 9 -14 -15 -113 -32 -132 -35 -39 -83 -20 -299
122 -192 126 -251 154 -335 158 -125 7 -182 -39 -285 -229 -101 -185 -176
-276 -259 -315 -110 -52 -183 -28 -439 145 -226 152 -281 181 -350 188 -84 8
-125 -21 -228 -157 -136 -178 -168 -202 -305 -226 -270 -46 -465 -240 -552
-549 -72 -254 -200 -420 -349 -453 l-43 -10 -41 81 c-175 349 -449 517 -780
477 -51 -6 -119 -18 -151 -27 l-59 -16 -26 34 c-49 65 -144 147 -210 182 -102
54 -172 71 -287 70 -128 0 -231 -28 -372 -98 l-105 -53 -87 14 c-157 25 -356
12 -496 -33 -65 -20 -194 -84 -253 -125 -26 -18 -105 -88 -177 -158 -152 -146
-216 -184 -305 -185 -75 0 -141 39 -191 115 -20 30 -79 120 -131 200 -139 211
-255 357 -408 511 -195 195 -364 300 -508 315 l-59 7 -12 49 c-32 139 -130
309 -232 401 -109 99 -244 152 -415 164 l-91 6 -13 35 c-19 53 -109 138 -182
172 -142 66 -234 74 -718 59 -157 -4 -220 6 -260 44 -31 28 -23 92 21 160 l33
52 0 150 c1 241 -37 352 -139 407 -57 31 -201 68 -385 101 l-125 22 -7 116
c-15 261 -108 483 -251 598 -60 47 -146 89 -224 107 -136 32 -400 3 -562 -62
-23 -9 -44 -14 -47 -12 -2 3 -9 52 -14 109 -32 336 -121 532 -273 600 -51 24
-56 24 -362 22 -170 -2 -402 -9 -515 -17 -113 -7 -206 -13 -207 -12 -1 1 37
35 85 76 129 112 479 464 552 555 145 182 198 292 185 378 -18 121 -107 319
-218 491 l-65 99 18 41 c43 102 55 176 55 346 0 146 -3 173 -23 234 -82 246
-249 417 -535 551 -99 46 -266 104 -360 125 l-57 13 68 71 c191 198 282 396
269 590 -9 139 -63 262 -173 392 l-52 61 34 44 c174 226 212 515 103 789 -102
256 -346 534 -696 794 -84 62 -133 115 -133 145 0 16 138 14 290 -4 645 -76
985 47 1075 390 29 113 18 307 -28 507 -1 4 28 19 64 32 131 46 213 118 266
233 41 87 44 222 9 358 -54 210 -223 497 -477 811 l-58 71 187 7 c586 21 881
102 953 261 69 151 -54 436 -358 833 -56 73 -87 122 -76 118 393 -119 635
-166 851 -166 67 0 145 5 174 11 147 31 250 129 250 238 0 89 -33 131 -231
291 -210 169 -318 285 -381 410 -25 49 -90 228 -90 247 0 22 63 24 215 8 199
-22 685 -31 785 -16 84 13 149 44 167 81 18 36 16 76 -12 244 -37 220 -31 302
22 352 24 22 34 24 122 24 53 0 150 -7 216 -15 153 -19 151 -19 174 4 14 14
20 40 25 112 17 227 62 489 97 567 l19 44 346 -3 c335 -3 346 -3 361 16 17 23
15 48 -21 280 -44 276 -67 513 -73 731 -6 233 1 284 40 284 29 0 107 -37 185
-88 235 -152 832 -273 1201 -243 295 24 427 100 534 308 115 224 178 509 182
828 2 192 13 237 62 256 100 38 211 -89 286 -326 14 -45 31 -110 37 -145 32
-179 163 -321 331 -359 63 -15 185 -13 271 3 41 8 155 40 254 71 237 75 576
172 799 230 101 26 199 57 224 72 139 81 204 224 185 411 -14 150 -11 243 9
284 41 81 156 163 282 199 88 26 90 25 115 -33z"/>
<path d="M20693 20886 l-28 -24 -3 -1966 -2 -1966 -1979 -2 -1979 -3 -26 -24
-26 -24 0 -561 c1 -592 0 -579 47 -604 16 -9 513 -12 1992 -12 l1971 0 2
-4865 3 -4865 28 -27 27 -28 528 -3 c290 -2 542 0 561 3 18 4 44 17 57 30 l24
24 0 4866 0 4865 1981 0 1981 0 29 29 29 29 0 546 c0 401 -3 552 -12 571 -27
59 106 55 -2038 55 l-1970 0 0 1956 c0 1467 -3 1961 -12 1977 -25 47 -12 46
-600 47 l-557 0 -28 -24z m1009 -2132 l3 -1966 28 -24 28 -24 1980 0 1979 0 0
-425 0 -425 -1970 0 c-2144 0 -2011 4 -2038 -55 -9 -20 -12 -1138 -12 -4881
l0 -4854 -422 2 -423 3 -5 4868 -5 4869 -28 24 -28 24 -1980 0 -1979 0 2 423
3 422 1985 5 c1092 3 1986 6 1987 8 1 1 11 12 23 24 20 22 20 23 20 1985 l0
1963 425 0 425 0 2 -1966z"/>
<path d="M12742 14688 c-17 -17 -17 -3809 0 -3826 9 -9 409 -12 1739 -12 1557
0 1729 2 1743 16 14 14 16 201 16 1905 0 1284 -3 1897 -10 1910 -10 19 -30 19
-790 19 -694 0 -780 -2 -794 -16 -14 -14 -16 -106 -16 -870 0 -570 3 -862 10
-875 6 -10 27 -27 48 -38 55 -28 125 -94 162 -151 142 -222 56 -519 -183 -630
-266 -124 -568 37 -617 330 -29 172 67 363 227 449 l48 26 3 874 c1 637 -1
877 -9 887 -16 19 -1558 21 -1577 2z"/>
<path d="M16562 14688 c-9 -9 -12 -447 -12 -1909 0 -1712 2 -1899 16 -1913 14
-14 185 -16 1735 -16 1167 0 1727 3 1740 10 18 10 19 27 19 580 0 504 -2 570
-16 584 -14 14 -77 16 -549 16 -472 0 -535 -2 -549 -16 -12 -11 -16 -35 -16
-84 0 -135 -66 -269 -170 -345 -214 -157 -509 -86 -627 152 -32 65 -37 86 -41
163 -5 96 10 159 55 236 35 62 115 131 191 167 l67 32 818 5 c712 4 819 7 827
20 15 24 13 803 -2 818 -9 9 -200 12 -798 12 -867 0 -852 -1 -959 63 -191 114
-259 375 -148 567 28 49 105 127 152 154 69 41 149 59 241 54 226 -12 393
-195 394 -430 0 -105 -43 -98 565 -98 455 0 523 2 543 16 l22 15 0 568 c0 428
-3 570 -12 579 -17 17 -3469 17 -3486 0z"/>
<path d="M12748 10539 c-17 -9 -18 -111 -18 -1912 0 -1181 4 -1908 10 -1917 8
-13 213 -15 1731 -18 1533 -2 1725 0 1746 13 l23 15 0 561 c0 367 -4 567 -10
580 -10 18 -27 19 -554 19 -464 0 -545 -2 -556 -15 -6 -8 -13 -47 -14 -87 -11
-318 -319 -510 -604 -378 -122 57 -209 176 -233 317 -30 172 72 360 236 437
95 45 116 46 935 46 760 0 780 0 790 19 6 13 10 160 10 410 l0 390 -22 16
c-21 14 -108 15 -810 15 -566 -1 -799 2 -830 10 -72 20 -140 60 -194 116 -159
163 -161 412 -3 579 147 156 393 176 558 45 108 -86 161 -190 166 -328 2 -46
9 -90 16 -98 10 -12 94 -14 550 -14 475 0 539 2 553 16 14 14 16 80 16 578 0
533 -1 564 -18 579 -17 16 -152 17 -1738 17 -1149 -1 -1725 -4 -1736 -11z"/>
<path d="M16567 10532 c-16 -17 -17 -112 -17 -1163 0 -877 3 -1148 12 -1157 9
-9 198 -12 790 -12 533 0 794 -4 830 -11 128 -27 246 -118 300 -230 122 -254
-37 -554 -317 -597 -84 -13 -166 0 -250 42 -147 73 -235 220 -235 391 0 34 -5
66 -12 73 -17 17 -1089 17 -1106 0 -9 -9 -12 -151 -12 -579 l0 -568 22 -15
c20 -14 201 -16 1733 -16 1532 0 1713 2 1733 16 l22 15 0 1149 0 1149 -22 16
c-21 14 -109 15 -813 15 -854 -1 -834 -2 -928 53 -61 36 -144 128 -175 194
-24 52 -27 70 -27 168 0 103 2 114 32 178 59 125 175 212 316 238 121 22 252
-18 348 -108 93 -87 139 -189 139 -312 0 -50 4 -74 16 -85 14 -14 78 -16 553
-16 404 0 540 3 549 12 9 9 12 151 12 579 0 503 -2 569 -16 583 -14 14 -185
16 -1738 16 -1656 0 -1724 -1 -1739 -18z"/>
</g>
</svg>
